<?xml version="1.0" encoding="UTF-8" standalone="no"?>
<!-- Created with Inkscape (http://www.inkscape.org/) -->

<svg
   xmlns:dc="http://purl.org/dc/elements/1.1/"
   xmlns:cc="http://creativecommons.org/ns#"
   xmlns:rdf="http://www.w3.org/1999/02/22-rdf-syntax-ns#"
   xmlns:svg="http://www.w3.org/2000/svg"
   xmlns="http://www.w3.org/2000/svg"
   xmlns:inkscape="http://www.inkscape.org/namespaces/inkscape"
   version="1.1"
   width="2510"
   height="2510"
   id="svg2"
   xml:space="preserve"><metadata
     id="metadata8"><rdf:RDF><cc:Work
         rdf:about=""><dc:format>image/svg+xml</dc:format><dc:type
           rdf:resource="http://purl.org/dc/dcmitype/StillImage" /></cc:Work></rdf:RDF></metadata><defs
     id="defs6" /><g
     transform="matrix(1.25,0,0,-1.25,0,2510)"
     id="g10"><g
       transform="scale(0.136878,0.136878)"
       id="g12"><path
         d="m 0,0 14670,0 0,14670 L 0,14670 0,0 z"
         inkscape:connector-curvature="0"
         id="path14"
         style="fill:#264e9c;fill-opacity:1;fill-rule:nonzero;stroke:none" /><path
         d="m 5955.86,7789.92 c -591.25,325.16 -996.04,985.2 -996.04,1748.59 0,643.99 288.01,1215.79 732.87,1573.89 -975.56,-93.8 -1737.92,-889.8 -1737.92,-1857.22 0,-726.41 429.1,-1353.34 1055.28,-1662.52 C 2744.41,6939.53 2685.27,3788.8 2685.27,3788.8 l 1075.95,0 c 0,0 55.42,3313.97 2194.64,4001.12"
         inkscape:connector-curvature="0"
         id="path16"
         style="fill:#f9fbfb;fill-opacity:1;fill-rule:nonzero;stroke:none" /><path
         d="m 9830.66,7592.66 c 626.44,309.18 1055.14,936.11 1055.14,1662.52 0,967.42 -761.8,1763.42 -1737.43,1857.22 444.8,-358.1 732.64,-929.9 732.64,-1573.89 0,-763.39 -404.84,-1423.43 -996.33,-1748.59 C 11024.1,7102.77 11079.7,3788.8 11079.7,3788.8 l 1075.7,0 c 0,0 -59,3150.73 -2324.74,3803.86"
         inkscape:connector-curvature="0"
         id="path18"
         style="fill:#f9fbfb;fill-opacity:1;fill-rule:nonzero;stroke:none" /><path
         d="m 8921.21,4561.62 -2593.78,0 279.84,277.61 2548.69,0 -234.75,-277.61 z M 5814.14,4346.04 c -56.33,154.79 -125.34,406.04 -280.76,477.04 0,0 206.96,28.82 300.28,-46.92 172.54,295.55 719.79,430.25 719.79,430.25 -378.52,-252.8 -570.7,-440.06 -739.31,-860.37 m 12.67,1290.61 c 172.55,295.55 719.8,430.24 719.8,430.24 -378.54,-252.84 -570.66,-440.11 -739.32,-860.48 -56.33,154.9 -125.34,406.1 -280.75,477.1 0,0 206.96,28.77 300.27,-46.86 m 0.06,860.43 c 172.49,295.54 719.79,430.24 719.79,430.24 -378.53,-252.79 -570.71,-440.06 -739.37,-860.43 -56.27,154.8 -125.28,406.1 -280.7,477.11 0,0 206.96,28.76 300.28,-46.92 m 3322.24,-797.36 -234.7,-277.62 -2593.83,0 279.85,277.62 2548.68,0 z m 0.06,860.43 -234.76,-277.62 -2593.77,0 279.84,277.62 2548.69,0 z M 8296.62,7816.4 c 625.79,334.87 1054.94,1013.05 1054.94,1798.99 0,1115.51 -864.59,2020.21 -1930.83,2020.21 -1066.47,0 -1931.35,-904.7 -1931.35,-2020.21 0,-785.94 428.93,-1464.12 1055.11,-1798.99 C 4278.85,7109.73 4219.88,3700.39 4219.88,3700.39 l 6401.22,0 c 0,0 -59.1,3409.34 -2324.48,4116.01"
         inkscape:connector-curvature="0"
         id="path20"
         style="fill:#f9fbfb;fill-opacity:1;fill-rule:nonzero;stroke:none" /></g></g></svg>